# xmcd CD database file
#
# Track frame offsets:
#	150
#	16121
#	29993
#	44878
#	56290
#	73291
#	89670
#	107134
#	122746
#	138260
#
# Disc length: 1998 seconds
#
# Revision: 0
# Processed by: cddbd v1.5.1PL2 Copyright (c) Steve Scherf et al.
# Submitted via: CDex 1.51
#
DISCID=9607cc0a
DTITLE=Highway 101 - All Time Greatest Hits
DYEAR=2004
DGENRE=Country
TTITLE0=The Bed You Made For Me
TTITLE1=Whiskey, If You Were A Woman
TTITLE2=Somewhere Tonight
TTITLE3=Cry, Cry, Cry
TTITLE4=(Do You Love Me) Just Say Yes
TTITLE5=All The Reasons Why
TTITLE6=Setting Me Up
TTITLE7=Honky Tonk Heart
TTITLE8=Who's Lonely Now
TTITLE9=Walkin', Talkin', Cryin', Barely Beatin' Broken Heart
EXTD=YEAR: 2004
EXTT0=
EXTT1=
EXTT2=
EXTT3=
EXTT4=
EXTT5=
EXTT6=
EXTT7=
EXTT8=
EXTT9=
PLAYORDER=
